<?xml version="1.0" encoding="UTF-8" standalone="no"?>
<!-- Created with Inkscape (http://www.inkscape.org/) -->

<svg
   xmlns:dc="http://purl.org/dc/elements/1.1/"
   xmlns:cc="http://creativecommons.org/ns#"
   xmlns:rdf="http://www.w3.org/1999/02/22-rdf-syntax-ns#"
   xmlns:svg="http://www.w3.org/2000/svg"
   xmlns="http://www.w3.org/2000/svg"
   xmlns:sodipodi="http://sodipodi.sourceforge.net/DTD/sodipodi-0.dtd"
   xmlns:inkscape="http://www.inkscape.org/namespaces/inkscape"
   width="144mm"
   height="144mm"
   viewBox="0 0 144 144"
   version="1.1"
   id="svg8"
   inkscape:version="0.92.4 (5da689c313, 2019-01-14)"
   sodipodi:docname="panel-grid-layer-4.svg">
  <defs
     id="defs2" />
  <sodipodi:namedview
     id="base"
     pagecolor="#ffffff"
     bordercolor="#666666"
     borderopacity="1.0"
     inkscape:pageopacity="0.0"
     inkscape:pageshadow="2"
     inkscape:zoom="1.979899"
     inkscape:cx="267.48693"
     inkscape:cy="526.20492"
     inkscape:document-units="mm"
     inkscape:current-layer="layer1"
     showgrid="false"
     showguides="true"
     inkscape:guide-bbox="true"
     inkscape:window-width="1680"
     inkscape:window-height="986"
     inkscape:window-x="0"
     inkscape:window-y="27"
     inkscape:window-maximized="1">
    <sodipodi:guide
       position="0,119.20221"
       orientation="1,0"
       id="guide10"
       inkscape:locked="false" />
    <sodipodi:guide
       position="9.0871642,125.75032"
       orientation="1,0"
       id="guide12"
       inkscape:locked="false" />
    <sodipodi:guide
       position="18.040694,125.21578"
       orientation="1,0"
       id="guide14"
       inkscape:locked="false" />
    <sodipodi:guide
       position="26.994223,123.07762"
       orientation="1,0"
       id="guide16"
       inkscape:locked="false" />
    <sodipodi:guide
       position="36.081387,122.27581"
       orientation="1,0"
       id="guide18"
       inkscape:locked="false" />
    <sodipodi:guide
       position="45.034917,121.74127"
       orientation="1,0"
       id="guide20"
       inkscape:locked="false" />
    <sodipodi:guide
       position="53.988446,122.54308"
       orientation="1,0"
       id="guide22"
       inkscape:locked="false" />
    <sodipodi:guide
       position="63.07561,115.05953"
       orientation="1,0"
       id="guide24"
       inkscape:locked="false" />
    <sodipodi:guide
       position="72.02914,113.58955"
       orientation="1,0"
       id="guide26"
       inkscape:locked="false" />
    <sodipodi:guide
       position="81.116304,112.11957"
       orientation="1,0"
       id="guide28"
       inkscape:locked="false" />
    <sodipodi:guide
       position="90.069833,112.38684"
       orientation="1,0"
       id="guide30"
       inkscape:locked="false" />
    <sodipodi:guide
       position="99.023363,119.87039"
       orientation="1,0"
       id="guide32"
       inkscape:locked="false" />
    <sodipodi:guide
       position="108.11053,104.76966"
       orientation="1,0"
       id="guide34"
       inkscape:locked="false" />
    <sodipodi:guide
       position="117.06406,109.31324"
       orientation="1,0"
       id="guide36"
       inkscape:locked="false" />
    <sodipodi:guide
       position="126.01759,101.16152"
       orientation="1,0"
       id="guide38"
       inkscape:locked="false" />
    <sodipodi:guide
       position="135.10475,97.152476"
       orientation="1,0"
       id="guide40"
       inkscape:locked="false" />
    <sodipodi:guide
       position="144.05828,123.21126"
       orientation="1,0"
       id="guide42"
       inkscape:locked="false" />
    <sodipodi:guide
       position="0,143.92464"
       orientation="0,1"
       id="guide63"
       inkscape:locked="false" />
    <sodipodi:guide
       position="0,134.97112"
       orientation="0,1"
       id="guide65"
       inkscape:locked="false" />
    <sodipodi:guide
       position="-24.054258,126.01759"
       orientation="0,1"
       id="guide67"
       inkscape:locked="false" />
    <sodipodi:guide
       position="-20.579754,116.93042"
       orientation="0,1"
       id="guide69"
       inkscape:locked="false" />
    <sodipodi:guide
       position="-16.704346,107.97689"
       orientation="0,1"
       id="guide71"
       inkscape:locked="false" />
    <sodipodi:guide
       position="-17.639789,98.889728"
       orientation="0,1"
       id="guide73"
       inkscape:locked="false" />
    <sodipodi:guide
       position="-16.036172,89.936199"
       orientation="0,1"
       id="guide75"
       inkscape:locked="false" />
    <sodipodi:guide
       position="-10.557147,80.982669"
       orientation="0,1"
       id="guide77"
       inkscape:locked="false" />
    <sodipodi:guide
       position="-11.091686,71.895505"
       orientation="0,1"
       id="guide79"
       inkscape:locked="false" />
    <sodipodi:guide
       position="-19.243407,62.941976"
       orientation="0,1"
       id="guide81"
       inkscape:locked="false" />
    <sodipodi:guide
       position="-21.648832,53.988446"
       orientation="0,1"
       id="guide83"
       inkscape:locked="false" />
    <sodipodi:guide
       position="-14.967094,44.901282"
       orientation="0,1"
       id="guide85"
       inkscape:locked="false" />
    <sodipodi:guide
       position="-20.045215,35.947753"
       orientation="0,1"
       id="guide87"
       inkscape:locked="false" />
    <sodipodi:guide
       position="-22.183371,26.994223"
       orientation="0,1"
       id="guide89"
       inkscape:locked="false" />
    <sodipodi:guide
       position="-7.483547,17.907059"
       orientation="0,1"
       id="guide91"
       inkscape:locked="false" />
    <sodipodi:guide
       position="-21.247928,8.9535294"
       orientation="0,1"
       id="guide93"
       inkscape:locked="false" />
    <sodipodi:guide
       position="-14.833459,0"
       orientation="0,1"
       id="guide95"
       inkscape:locked="false" />
  </sodipodi:namedview>
  <metadata
     id="metadata5">
    <rdf:RDF>
      <cc:Work
         rdf:about="">
        <dc:format>image/svg+xml</dc:format>
        <dc:type
           rdf:resource="http://purl.org/dc/dcmitype/StillImage" />
        <dc:title />
      </cc:Work>
    </rdf:RDF>
  </metadata>
  <g
     inkscape:label="Layer 1"
     inkscape:groupmode="layer"
     id="layer1"
     transform="translate(0,-153)">
    <path
       style="fill:#000000;fill-opacity:1;stroke-width:0.99999994"
       d="M 170.21094 0.28515625 L 170.21094 34.125 L 238.39648 34.125 L 238.39648 0.28515625 L 170.21094 0.28515625 z M 272.23633 0.28515625 L 272.23633 34.125 L 306.58203 34.125 L 306.58203 0.28515625 L 272.23633 0.28515625 z M 340.42188 0.28515625 L 340.42188 34.125 L 408.60742 34.125 L 408.60742 0.28515625 L 340.42188 0.28515625 z M 68.185547 34.125 L 68.185547 67.964844 L 102.02539 67.964844 L 102.02539 34.125 L 68.185547 34.125 z M 68.185547 67.964844 L 34.345703 67.964844 L 34.345703 102.31055 L 68.185547 102.31055 L 68.185547 67.964844 z M 510.63281 34.125 L 510.63281 67.964844 L 544.47266 67.964844 L 544.47266 34.125 L 510.63281 34.125 z M 170.21094 67.964844 L 170.21094 102.31055 L 204.05078 102.31055 L 204.05078 67.964844 L 170.21094 67.964844 z M 306.58203 67.964844 L 306.58203 102.31055 L 374.26172 102.31055 L 374.26172 67.964844 L 306.58203 67.964844 z M 0 136.15039 L 0 170.49609 L 34.345703 170.49609 L 34.345703 136.15039 L 0 136.15039 z M 102.02539 136.15039 L 102.02539 170.49609 L 170.21094 170.49609 L 170.21094 136.15039 L 102.02539 136.15039 z M 238.39648 136.15039 L 238.39648 170.49609 L 272.23633 170.49609 L 272.23633 136.15039 L 238.39648 136.15039 z M 340.42188 136.15039 L 340.42188 170.49609 L 374.26172 170.49609 L 374.26172 136.15039 L 340.42188 136.15039 z M 340.42188 170.49609 L 306.58203 170.49609 L 306.58203 204.33594 L 340.42188 204.33594 L 340.42188 170.49609 z M 442.44727 136.15039 L 442.44727 170.49609 L 476.28711 170.49609 L 476.28711 136.15039 L 442.44727 136.15039 z M 476.28711 170.49609 L 476.28711 204.33594 L 510.63281 204.33594 L 510.63281 170.49609 L 476.28711 170.49609 z M 442.44727 170.49609 L 408.60742 170.49609 L 408.60742 204.33594 L 442.44727 204.33594 L 442.44727 170.49609 z M 0 204.33594 L 0 272.52148 L 34.345703 272.52148 L 34.345703 204.33594 L 0 204.33594 z M 374.26172 238.17578 L 374.26172 272.52148 L 374.26172 306.36133 L 408.60742 306.36133 L 408.60742 272.52148 L 442.44727 272.52148 L 442.44727 238.17578 L 374.26172 238.17578 z M 204.05078 272.52148 L 204.05078 340.20117 L 238.39648 340.20117 L 238.39648 272.52148 L 204.05078 272.52148 z M 204.05078 340.20117 L 170.21094 340.20117 L 170.21094 374.54688 L 204.05078 374.54688 L 204.05078 340.20117 z M 510.63281 272.52148 L 510.63281 306.36133 L 544.47266 306.36133 L 544.47266 272.52148 L 510.63281 272.52148 z M 68.185547 340.20117 L 68.185547 374.54688 L 102.02539 374.54688 L 102.02539 340.20117 L 68.185547 340.20117 z M 272.23633 340.20117 L 272.23633 374.54688 L 306.58203 374.54688 L 306.58203 340.20117 L 272.23633 340.20117 z M 476.28711 340.20117 L 476.28711 374.54688 L 544.47266 374.54688 L 544.47266 340.20117 L 476.28711 340.20117 z M 340.42188 374.54688 L 340.42188 408.38672 L 374.26172 408.38672 L 374.26172 374.54688 L 340.42188 374.54688 z M 34.345703 408.38672 L 34.345703 442.22656 L 102.02539 442.22656 L 102.02539 408.38672 L 34.345703 408.38672 z M 238.39648 408.38672 L 238.39648 442.22656 L 272.23633 442.22656 L 272.23633 408.38672 L 238.39648 408.38672 z M 510.63281 408.38672 L 510.63281 442.22656 L 544.47266 442.22656 L 544.47266 408.38672 L 510.63281 408.38672 z M 408.60742 442.22656 L 408.60742 476.57227 L 408.60742 510.41211 L 510.63281 510.41211 L 510.63281 476.57227 L 442.44727 476.57227 L 442.44727 442.22656 L 408.60742 442.22656 z M 34.345703 476.57227 L 34.345703 510.41211 L 102.02539 510.41211 L 102.02539 476.57227 L 34.345703 476.57227 z M 204.05078 510.41211 L 204.05078 544.25195 L 238.39648 544.25195 L 238.39648 510.41211 L 204.05078 510.41211 z "
       transform="matrix(0.26458333,0,0,0.26458333,0,153)"
       id="rect47" />
    <rect
       style="fill:#000000;fill-opacity:1;stroke-width:0.26458332"
       id="rect69"
       width="18.040688"
       height="8.9535294"
       x="126.01758"
       y="180.06958" />
  </g>
</svg>
